<mxfile host="65bd71144e">
    <diagram id="R2lEEEUBdFMjLlhIrx00" name="Page-1">
        <mxGraphModel dx="617" dy="1451" grid="1" gridSize="10" guides="1" tooltips="1" connect="1" arrows="1" fold="1" page="1" pageScale="1" pageWidth="850" pageHeight="1100" math="0" shadow="0" extFonts="Permanent Marker^https://fonts.googleapis.com/css?family=Permanent+Marker">
            <root>
                <mxCell id="0"/>
                <mxCell id="1" parent="0"/>
                <mxCell id="uYI1tOV3QVHNaPLx2gHy-36" value="animals" style="shape=table;startSize=30;container=1;collapsible=0;childLayout=tableLayout;align=center;rounded=1;shadow=0;swimlaneLine=1;sketch=0;fillColor=#0050ef;strokeColor=#001DBC;fontColor=#ffffff;" parent="1" vertex="1">
                    <mxGeometry x="10" y="-230" width="230" height="264" as="geometry"/>
                </mxCell>
                <mxCell id="uYI1tOV3QVHNaPLx2gHy-37" value="" style="shape=tableRow;horizontal=0;startSize=0;swimlaneHead=0;swimlaneBody=0;top=0;left=0;bottom=0;right=0;collapsible=0;dropTarget=0;fillColor=none;points=[[0,0.5],[1,0.5]];portConstraint=eastwest;align=left;" parent="uYI1tOV3QVHNaPLx2gHy-36" vertex="1">
                    <mxGeometry y="30" width="230" height="27" as="geometry"/>
                </mxCell>
                <mxCell id="uYI1tOV3QVHNaPLx2gHy-38" value="&lt;b&gt;PK&lt;/b&gt;" style="shape=partialRectangle;html=1;whiteSpace=wrap;connectable=0;overflow=hidden;fillColor=none;top=0;left=0;bottom=0;right=0;pointerEvents=1;align=left;" parent="uYI1tOV3QVHNaPLx2gHy-37" vertex="1">
                    <mxGeometry width="40" height="27" as="geometry">
                        <mxRectangle width="40" height="27" as="alternateBounds"/>
                    </mxGeometry>
                </mxCell>
                <mxCell id="uYI1tOV3QVHNaPLx2gHy-39" value="id INT NOT NULL" style="shape=partialRectangle;html=1;whiteSpace=wrap;connectable=0;overflow=hidden;fillColor=none;top=0;left=0;bottom=0;right=0;pointerEvents=1;align=left;" parent="uYI1tOV3QVHNaPLx2gHy-37" vertex="1">
                    <mxGeometry x="40" width="190" height="27" as="geometry">
                        <mxRectangle width="190" height="27" as="alternateBounds"/>
                    </mxGeometry>
                </mxCell>
                <mxCell id="uYI1tOV3QVHNaPLx2gHy-40" value="" style="shape=tableRow;horizontal=0;startSize=0;swimlaneHead=0;swimlaneBody=0;top=0;left=0;bottom=0;right=0;collapsible=0;dropTarget=0;fillColor=none;points=[[0,0.5],[1,0.5]];portConstraint=eastwest;align=left;" parent="uYI1tOV3QVHNaPLx2gHy-36" vertex="1">
                    <mxGeometry y="57" width="230" height="26" as="geometry"/>
                </mxCell>
                <mxCell id="uYI1tOV3QVHNaPLx2gHy-41" value="" style="shape=partialRectangle;html=1;whiteSpace=wrap;connectable=0;overflow=hidden;fillColor=none;top=0;left=0;bottom=0;right=0;pointerEvents=1;align=left;" parent="uYI1tOV3QVHNaPLx2gHy-40" vertex="1">
                    <mxGeometry width="40" height="26" as="geometry">
                        <mxRectangle width="40" height="26" as="alternateBounds"/>
                    </mxGeometry>
                </mxCell>
                <mxCell id="uYI1tOV3QVHNaPLx2gHy-42" value="name VARCHAR(50) NOT NULL" style="shape=partialRectangle;html=1;whiteSpace=wrap;connectable=0;overflow=hidden;fillColor=none;top=0;left=0;bottom=0;right=0;pointerEvents=1;align=left;" parent="uYI1tOV3QVHNaPLx2gHy-40" vertex="1">
                    <mxGeometry x="40" width="190" height="26" as="geometry">
                        <mxRectangle width="190" height="26" as="alternateBounds"/>
                    </mxGeometry>
                </mxCell>
                <mxCell id="uYI1tOV3QVHNaPLx2gHy-43" value="" style="shape=tableRow;horizontal=0;startSize=0;swimlaneHead=0;swimlaneBody=0;top=0;left=0;bottom=0;right=0;collapsible=0;dropTarget=0;fillColor=none;points=[[0,0.5],[1,0.5]];portConstraint=eastwest;align=left;" parent="uYI1tOV3QVHNaPLx2gHy-36" vertex="1">
                    <mxGeometry y="83" width="230" height="27" as="geometry"/>
                </mxCell>
                <mxCell id="uYI1tOV3QVHNaPLx2gHy-44" value="" style="shape=partialRectangle;html=1;whiteSpace=wrap;connectable=0;overflow=hidden;fillColor=none;top=0;left=0;bottom=0;right=0;pointerEvents=1;align=left;" parent="uYI1tOV3QVHNaPLx2gHy-43" vertex="1">
                    <mxGeometry width="40" height="27" as="geometry">
                        <mxRectangle width="40" height="27" as="alternateBounds"/>
                    </mxGeometry>
                </mxCell>
                <mxCell id="uYI1tOV3QVHNaPLx2gHy-45" value="date_of_birth date NOT NULL" style="shape=partialRectangle;html=1;whiteSpace=wrap;connectable=0;overflow=hidden;fillColor=none;top=0;left=0;bottom=0;right=0;pointerEvents=1;align=left;" parent="uYI1tOV3QVHNaPLx2gHy-43" vertex="1">
                    <mxGeometry x="40" width="190" height="27" as="geometry">
                        <mxRectangle width="190" height="27" as="alternateBounds"/>
                    </mxGeometry>
                </mxCell>
                <mxCell id="uYI1tOV3QVHNaPLx2gHy-46" value="" style="shape=tableRow;horizontal=0;startSize=0;swimlaneHead=0;swimlaneBody=0;top=0;left=0;bottom=0;right=0;collapsible=0;dropTarget=0;fillColor=none;points=[[0,0.5],[1,0.5]];portConstraint=eastwest;align=left;" parent="uYI1tOV3QVHNaPLx2gHy-36" vertex="1">
                    <mxGeometry y="110" width="230" height="20" as="geometry"/>
                </mxCell>
                <mxCell id="uYI1tOV3QVHNaPLx2gHy-47" value="" style="shape=partialRectangle;html=1;whiteSpace=wrap;connectable=0;overflow=hidden;fillColor=none;top=0;left=0;bottom=0;right=0;pointerEvents=1;align=left;" parent="uYI1tOV3QVHNaPLx2gHy-46" vertex="1">
                    <mxGeometry width="40" height="20" as="geometry">
                        <mxRectangle width="40" height="20" as="alternateBounds"/>
                    </mxGeometry>
                </mxCell>
                <mxCell id="uYI1tOV3QVHNaPLx2gHy-48" value="escape_attempts INT NOT NULL" style="shape=partialRectangle;html=1;whiteSpace=wrap;connectable=0;overflow=hidden;fillColor=none;top=0;left=0;bottom=0;right=0;pointerEvents=1;align=left;" parent="uYI1tOV3QVHNaPLx2gHy-46" vertex="1">
                    <mxGeometry x="40" width="190" height="20" as="geometry">
                        <mxRectangle width="190" height="20" as="alternateBounds"/>
                    </mxGeometry>
                </mxCell>
                <mxCell id="uYI1tOV3QVHNaPLx2gHy-49" value="" style="shape=tableRow;horizontal=0;startSize=0;swimlaneHead=0;swimlaneBody=0;top=0;left=0;bottom=0;right=0;collapsible=0;dropTarget=0;fillColor=none;points=[[0,0.5],[1,0.5]];portConstraint=eastwest;align=left;" parent="uYI1tOV3QVHNaPLx2gHy-36" vertex="1">
                    <mxGeometry y="130" width="230" height="26" as="geometry"/>
                </mxCell>
                <mxCell id="uYI1tOV3QVHNaPLx2gHy-50" value="" style="shape=partialRectangle;html=1;whiteSpace=wrap;connectable=0;overflow=hidden;fillColor=none;top=0;left=0;bottom=0;right=0;pointerEvents=1;align=left;" parent="uYI1tOV3QVHNaPLx2gHy-49" vertex="1">
                    <mxGeometry width="40" height="26" as="geometry">
                        <mxRectangle width="40" height="26" as="alternateBounds"/>
                    </mxGeometry>
                </mxCell>
                <mxCell id="uYI1tOV3QVHNaPLx2gHy-51" value="neutered BOOLEAN NOT NULL" style="shape=partialRectangle;html=1;whiteSpace=wrap;connectable=0;overflow=hidden;fillColor=none;top=0;left=0;bottom=0;right=0;pointerEvents=1;align=left;" parent="uYI1tOV3QVHNaPLx2gHy-49" vertex="1">
                    <mxGeometry x="40" width="190" height="26" as="geometry">
                        <mxRectangle width="190" height="26" as="alternateBounds"/>
                    </mxGeometry>
                </mxCell>
                <mxCell id="uYI1tOV3QVHNaPLx2gHy-52" value="" style="shape=tableRow;horizontal=0;startSize=0;swimlaneHead=0;swimlaneBody=0;top=0;left=0;bottom=0;right=0;collapsible=0;dropTarget=0;fillColor=none;points=[[0,0.5],[1,0.5]];portConstraint=eastwest;align=left;" parent="uYI1tOV3QVHNaPLx2gHy-36" vertex="1">
                    <mxGeometry y="156" width="230" height="27" as="geometry"/>
                </mxCell>
                <mxCell id="uYI1tOV3QVHNaPLx2gHy-53" value="" style="shape=partialRectangle;html=1;whiteSpace=wrap;connectable=0;overflow=hidden;fillColor=none;top=0;left=0;bottom=0;right=0;pointerEvents=1;align=left;" parent="uYI1tOV3QVHNaPLx2gHy-52" vertex="1">
                    <mxGeometry width="40" height="27" as="geometry">
                        <mxRectangle width="40" height="27" as="alternateBounds"/>
                    </mxGeometry>
                </mxCell>
                <mxCell id="uYI1tOV3QVHNaPLx2gHy-54" value="weight_kg DECIMAL NOT NULL" style="shape=partialRectangle;html=1;whiteSpace=wrap;connectable=0;overflow=hidden;fillColor=none;top=0;left=0;bottom=0;right=0;pointerEvents=1;align=left;" parent="uYI1tOV3QVHNaPLx2gHy-52" vertex="1">
                    <mxGeometry x="40" width="190" height="27" as="geometry">
                        <mxRectangle width="190" height="27" as="alternateBounds"/>
                    </mxGeometry>
                </mxCell>
                <mxCell id="uYI1tOV3QVHNaPLx2gHy-69" style="shape=tableRow;horizontal=0;startSize=0;swimlaneHead=0;swimlaneBody=0;top=0;left=0;bottom=0;right=0;collapsible=0;dropTarget=0;fillColor=none;points=[[0,0.5],[1,0.5]];portConstraint=eastwest;align=left;" parent="uYI1tOV3QVHNaPLx2gHy-36" vertex="1">
                    <mxGeometry y="183" width="230" height="27" as="geometry"/>
                </mxCell>
                <mxCell id="uYI1tOV3QVHNaPLx2gHy-70" style="shape=partialRectangle;html=1;whiteSpace=wrap;connectable=0;overflow=hidden;fillColor=none;top=0;left=0;bottom=0;right=0;pointerEvents=1;align=left;" parent="uYI1tOV3QVHNaPLx2gHy-69" vertex="1">
                    <mxGeometry width="40" height="27" as="geometry">
                        <mxRectangle width="40" height="27" as="alternateBounds"/>
                    </mxGeometry>
                </mxCell>
                <mxCell id="uYI1tOV3QVHNaPLx2gHy-71" value="species VARCHAR(50)" style="shape=partialRectangle;html=1;whiteSpace=wrap;connectable=0;overflow=hidden;fillColor=none;top=0;left=0;bottom=0;right=0;pointerEvents=1;align=left;" parent="uYI1tOV3QVHNaPLx2gHy-69" vertex="1">
                    <mxGeometry x="40" width="190" height="27" as="geometry">
                        <mxRectangle width="190" height="27" as="alternateBounds"/>
                    </mxGeometry>
                </mxCell>
                <mxCell id="uYI1tOV3QVHNaPLx2gHy-82" style="shape=tableRow;horizontal=0;startSize=0;swimlaneHead=0;swimlaneBody=0;top=0;left=0;bottom=0;right=0;collapsible=0;dropTarget=0;fillColor=none;points=[[0,0.5],[1,0.5]];portConstraint=eastwest;align=left;" parent="uYI1tOV3QVHNaPLx2gHy-36" vertex="1">
                    <mxGeometry y="210" width="230" height="27" as="geometry"/>
                </mxCell>
                <mxCell id="uYI1tOV3QVHNaPLx2gHy-83" value="FK" style="shape=partialRectangle;html=1;whiteSpace=wrap;connectable=0;overflow=hidden;fillColor=none;top=0;left=0;bottom=0;right=0;pointerEvents=1;align=left;" parent="uYI1tOV3QVHNaPLx2gHy-82" vertex="1">
                    <mxGeometry width="40" height="27" as="geometry">
                        <mxRectangle width="40" height="27" as="alternateBounds"/>
                    </mxGeometry>
                </mxCell>
                <mxCell id="uYI1tOV3QVHNaPLx2gHy-84" value="species_id INT" style="shape=partialRectangle;html=1;whiteSpace=wrap;connectable=0;overflow=hidden;fillColor=none;top=0;left=0;bottom=0;right=0;pointerEvents=1;align=left;" parent="uYI1tOV3QVHNaPLx2gHy-82" vertex="1">
                    <mxGeometry x="40" width="190" height="27" as="geometry">
                        <mxRectangle width="190" height="27" as="alternateBounds"/>
                    </mxGeometry>
                </mxCell>
                <mxCell id="uYI1tOV3QVHNaPLx2gHy-85" style="shape=tableRow;horizontal=0;startSize=0;swimlaneHead=0;swimlaneBody=0;top=0;left=0;bottom=0;right=0;collapsible=0;dropTarget=0;fillColor=none;points=[[0,0.5],[1,0.5]];portConstraint=eastwest;align=left;" parent="uYI1tOV3QVHNaPLx2gHy-36" vertex="1">
                    <mxGeometry y="237" width="230" height="27" as="geometry"/>
                </mxCell>
                <mxCell id="uYI1tOV3QVHNaPLx2gHy-86" value="FK" style="shape=partialRectangle;html=1;whiteSpace=wrap;connectable=0;overflow=hidden;fillColor=none;top=0;left=0;bottom=0;right=0;pointerEvents=1;align=left;" parent="uYI1tOV3QVHNaPLx2gHy-85" vertex="1">
                    <mxGeometry width="40" height="27" as="geometry">
                        <mxRectangle width="40" height="27" as="alternateBounds"/>
                    </mxGeometry>
                </mxCell>
                <mxCell id="uYI1tOV3QVHNaPLx2gHy-87" value="owner_id INT" style="shape=partialRectangle;html=1;whiteSpace=wrap;connectable=0;overflow=hidden;fillColor=none;top=0;left=0;bottom=0;right=0;pointerEvents=1;align=left;" parent="uYI1tOV3QVHNaPLx2gHy-85" vertex="1">
                    <mxGeometry x="40" width="190" height="27" as="geometry">
                        <mxRectangle width="190" height="27" as="alternateBounds"/>
                    </mxGeometry>
                </mxCell>
                <mxCell id="uYI1tOV3QVHNaPLx2gHy-55" value="owners" style="shape=table;startSize=30;container=1;collapsible=0;childLayout=tableLayout;align=center;rounded=1;fillColor=#f8cecc;strokeColor=#b85450;" parent="1" vertex="1">
                    <mxGeometry x="660" y="-280" width="190" height="120" as="geometry"/>
                </mxCell>
                <mxCell id="uYI1tOV3QVHNaPLx2gHy-56" value="" style="shape=tableRow;horizontal=0;startSize=0;swimlaneHead=0;swimlaneBody=0;top=0;left=0;bottom=0;right=0;collapsible=0;dropTarget=0;fillColor=none;points=[[0,0.5],[1,0.5]];portConstraint=eastwest;align=left;" parent="uYI1tOV3QVHNaPLx2gHy-55" vertex="1">
                    <mxGeometry y="30" width="190" height="30" as="geometry"/>
                </mxCell>
                <mxCell id="uYI1tOV3QVHNaPLx2gHy-57" value="PK" style="shape=partialRectangle;html=1;whiteSpace=wrap;connectable=0;overflow=hidden;fillColor=none;top=0;left=0;bottom=0;right=0;pointerEvents=1;align=left;" parent="uYI1tOV3QVHNaPLx2gHy-56" vertex="1">
                    <mxGeometry width="63" height="30" as="geometry">
                        <mxRectangle width="63" height="30" as="alternateBounds"/>
                    </mxGeometry>
                </mxCell>
                <mxCell id="uYI1tOV3QVHNaPLx2gHy-58" value="id INT NOT NULL" style="shape=partialRectangle;html=1;whiteSpace=wrap;connectable=0;overflow=hidden;fillColor=none;top=0;left=0;bottom=0;right=0;pointerEvents=1;align=left;" parent="uYI1tOV3QVHNaPLx2gHy-56" vertex="1">
                    <mxGeometry x="63" width="127" height="30" as="geometry">
                        <mxRectangle width="127" height="30" as="alternateBounds"/>
                    </mxGeometry>
                </mxCell>
                <mxCell id="uYI1tOV3QVHNaPLx2gHy-59" value="" style="shape=tableRow;horizontal=0;startSize=0;swimlaneHead=0;swimlaneBody=0;top=0;left=0;bottom=0;right=0;collapsible=0;dropTarget=0;fillColor=none;points=[[0,0.5],[1,0.5]];portConstraint=eastwest;align=left;" parent="uYI1tOV3QVHNaPLx2gHy-55" vertex="1">
                    <mxGeometry y="60" width="190" height="30" as="geometry"/>
                </mxCell>
                <mxCell id="uYI1tOV3QVHNaPLx2gHy-60" value="" style="shape=partialRectangle;html=1;whiteSpace=wrap;connectable=0;overflow=hidden;fillColor=none;top=0;left=0;bottom=0;right=0;pointerEvents=1;align=left;" parent="uYI1tOV3QVHNaPLx2gHy-59" vertex="1">
                    <mxGeometry width="63" height="30" as="geometry">
                        <mxRectangle width="63" height="30" as="alternateBounds"/>
                    </mxGeometry>
                </mxCell>
                <mxCell id="uYI1tOV3QVHNaPLx2gHy-61" value="full_name VARCHAR(50) NOT NULL" style="shape=partialRectangle;html=1;whiteSpace=wrap;connectable=0;overflow=hidden;fillColor=none;top=0;left=0;bottom=0;right=0;pointerEvents=1;align=left;" parent="uYI1tOV3QVHNaPLx2gHy-59" vertex="1">
                    <mxGeometry x="63" width="127" height="30" as="geometry">
                        <mxRectangle width="127" height="30" as="alternateBounds"/>
                    </mxGeometry>
                </mxCell>
                <mxCell id="uYI1tOV3QVHNaPLx2gHy-62" value="" style="shape=tableRow;horizontal=0;startSize=0;swimlaneHead=0;swimlaneBody=0;top=0;left=0;bottom=0;right=0;collapsible=0;dropTarget=0;fillColor=none;points=[[0,0.5],[1,0.5]];portConstraint=eastwest;align=left;" parent="uYI1tOV3QVHNaPLx2gHy-55" vertex="1">
                    <mxGeometry y="90" width="190" height="30" as="geometry"/>
                </mxCell>
                <mxCell id="uYI1tOV3QVHNaPLx2gHy-63" value="" style="shape=partialRectangle;html=1;whiteSpace=wrap;connectable=0;overflow=hidden;fillColor=none;top=0;left=0;bottom=0;right=0;pointerEvents=1;align=left;" parent="uYI1tOV3QVHNaPLx2gHy-62" vertex="1">
                    <mxGeometry width="63" height="30" as="geometry">
                        <mxRectangle width="63" height="30" as="alternateBounds"/>
                    </mxGeometry>
                </mxCell>
                <mxCell id="uYI1tOV3QVHNaPLx2gHy-64" value="age INT NOT NULL" style="shape=partialRectangle;html=1;whiteSpace=wrap;connectable=0;overflow=hidden;fillColor=none;top=0;left=0;bottom=0;right=0;pointerEvents=1;align=left;" parent="uYI1tOV3QVHNaPLx2gHy-62" vertex="1">
                    <mxGeometry x="63" width="127" height="30" as="geometry">
                        <mxRectangle width="127" height="30" as="alternateBounds"/>
                    </mxGeometry>
                </mxCell>
                <mxCell id="uYI1tOV3QVHNaPLx2gHy-72" value="vets" style="shape=table;startSize=30;container=1;collapsible=0;childLayout=tableLayout;align=center;rounded=1;fillColor=#f8cecc;strokeColor=#b85450;" parent="1" vertex="1">
                    <mxGeometry x="810" y="-100" width="190" height="150" as="geometry"/>
                </mxCell>
                <mxCell id="uYI1tOV3QVHNaPLx2gHy-73" value="" style="shape=tableRow;horizontal=0;startSize=0;swimlaneHead=0;swimlaneBody=0;top=0;left=0;bottom=0;right=0;collapsible=0;dropTarget=0;fillColor=none;points=[[0,0.5],[1,0.5]];portConstraint=eastwest;align=left;" parent="uYI1tOV3QVHNaPLx2gHy-72" vertex="1">
                    <mxGeometry y="30" width="190" height="30" as="geometry"/>
                </mxCell>
                <mxCell id="uYI1tOV3QVHNaPLx2gHy-74" value="PK" style="shape=partialRectangle;html=1;whiteSpace=wrap;connectable=0;overflow=hidden;fillColor=none;top=0;left=0;bottom=0;right=0;pointerEvents=1;align=left;" parent="uYI1tOV3QVHNaPLx2gHy-73" vertex="1">
                    <mxGeometry width="63" height="30" as="geometry">
                        <mxRectangle width="63" height="30" as="alternateBounds"/>
                    </mxGeometry>
                </mxCell>
                <mxCell id="uYI1tOV3QVHNaPLx2gHy-75" value="id INT NOT NULL" style="shape=partialRectangle;html=1;whiteSpace=wrap;connectable=0;overflow=hidden;fillColor=none;top=0;left=0;bottom=0;right=0;pointerEvents=1;align=left;" parent="uYI1tOV3QVHNaPLx2gHy-73" vertex="1">
                    <mxGeometry x="63" width="127" height="30" as="geometry">
                        <mxRectangle width="127" height="30" as="alternateBounds"/>
                    </mxGeometry>
                </mxCell>
                <mxCell id="uYI1tOV3QVHNaPLx2gHy-76" value="" style="shape=tableRow;horizontal=0;startSize=0;swimlaneHead=0;swimlaneBody=0;top=0;left=0;bottom=0;right=0;collapsible=0;dropTarget=0;fillColor=none;points=[[0,0.5],[1,0.5]];portConstraint=eastwest;align=left;" parent="uYI1tOV3QVHNaPLx2gHy-72" vertex="1">
                    <mxGeometry y="60" width="190" height="30" as="geometry"/>
                </mxCell>
                <mxCell id="uYI1tOV3QVHNaPLx2gHy-77" value="" style="shape=partialRectangle;html=1;whiteSpace=wrap;connectable=0;overflow=hidden;fillColor=none;top=0;left=0;bottom=0;right=0;pointerEvents=1;align=left;" parent="uYI1tOV3QVHNaPLx2gHy-76" vertex="1">
                    <mxGeometry width="63" height="30" as="geometry">
                        <mxRectangle width="63" height="30" as="alternateBounds"/>
                    </mxGeometry>
                </mxCell>
                <mxCell id="uYI1tOV3QVHNaPLx2gHy-78" value="name VARCHAR(50) NOT NULL" style="shape=partialRectangle;html=1;whiteSpace=wrap;connectable=0;overflow=hidden;fillColor=none;top=0;left=0;bottom=0;right=0;pointerEvents=1;align=left;" parent="uYI1tOV3QVHNaPLx2gHy-76" vertex="1">
                    <mxGeometry x="63" width="127" height="30" as="geometry">
                        <mxRectangle width="127" height="30" as="alternateBounds"/>
                    </mxGeometry>
                </mxCell>
                <mxCell id="uYI1tOV3QVHNaPLx2gHy-79" value="" style="shape=tableRow;horizontal=0;startSize=0;swimlaneHead=0;swimlaneBody=0;top=0;left=0;bottom=0;right=0;collapsible=0;dropTarget=0;fillColor=none;points=[[0,0.5],[1,0.5]];portConstraint=eastwest;align=left;" parent="uYI1tOV3QVHNaPLx2gHy-72" vertex="1">
                    <mxGeometry y="90" width="190" height="30" as="geometry"/>
                </mxCell>
                <mxCell id="uYI1tOV3QVHNaPLx2gHy-80" value="" style="shape=partialRectangle;html=1;whiteSpace=wrap;connectable=0;overflow=hidden;fillColor=none;top=0;left=0;bottom=0;right=0;pointerEvents=1;align=left;" parent="uYI1tOV3QVHNaPLx2gHy-79" vertex="1">
                    <mxGeometry width="63" height="30" as="geometry">
                        <mxRectangle width="63" height="30" as="alternateBounds"/>
                    </mxGeometry>
                </mxCell>
                <mxCell id="uYI1tOV3QVHNaPLx2gHy-81" value="age INT NOT NULL" style="shape=partialRectangle;html=1;whiteSpace=wrap;connectable=0;overflow=hidden;fillColor=none;top=0;left=0;bottom=0;right=0;pointerEvents=1;align=left;" parent="uYI1tOV3QVHNaPLx2gHy-79" vertex="1">
                    <mxGeometry x="63" width="127" height="30" as="geometry">
                        <mxRectangle width="127" height="30" as="alternateBounds"/>
                    </mxGeometry>
                </mxCell>
                <mxCell id="uYI1tOV3QVHNaPLx2gHy-88" style="shape=tableRow;horizontal=0;startSize=0;swimlaneHead=0;swimlaneBody=0;top=0;left=0;bottom=0;right=0;collapsible=0;dropTarget=0;fillColor=none;points=[[0,0.5],[1,0.5]];portConstraint=eastwest;align=left;" parent="uYI1tOV3QVHNaPLx2gHy-72" vertex="1">
                    <mxGeometry y="120" width="190" height="30" as="geometry"/>
                </mxCell>
                <mxCell id="uYI1tOV3QVHNaPLx2gHy-89" style="shape=partialRectangle;html=1;whiteSpace=wrap;connectable=0;overflow=hidden;fillColor=none;top=0;left=0;bottom=0;right=0;pointerEvents=1;align=left;" parent="uYI1tOV3QVHNaPLx2gHy-88" vertex="1">
                    <mxGeometry width="63" height="30" as="geometry">
                        <mxRectangle width="63" height="30" as="alternateBounds"/>
                    </mxGeometry>
                </mxCell>
                <mxCell id="uYI1tOV3QVHNaPLx2gHy-90" value="date_of_graduation date NOT NULL" style="shape=partialRectangle;html=1;whiteSpace=wrap;connectable=0;overflow=hidden;fillColor=none;top=0;left=0;bottom=0;right=0;pointerEvents=1;align=left;" parent="uYI1tOV3QVHNaPLx2gHy-88" vertex="1">
                    <mxGeometry x="63" width="127" height="30" as="geometry">
                        <mxRectangle width="127" height="30" as="alternateBounds"/>
                    </mxGeometry>
                </mxCell>
                <mxCell id="uYI1tOV3QVHNaPLx2gHy-91" value="specializations" style="shape=table;startSize=30;container=1;collapsible=0;childLayout=tableLayout;align=center;rounded=1;fillColor=#e1d5e7;strokeColor=#9673a6;" parent="1" vertex="1">
                    <mxGeometry x="40" y="160" width="190" height="150" as="geometry"/>
                </mxCell>
                <mxCell id="uYI1tOV3QVHNaPLx2gHy-92" value="" style="shape=tableRow;horizontal=0;startSize=0;swimlaneHead=0;swimlaneBody=0;top=0;left=0;bottom=0;right=0;collapsible=0;dropTarget=0;fillColor=none;points=[[0,0.5],[1,0.5]];portConstraint=eastwest;align=left;" parent="uYI1tOV3QVHNaPLx2gHy-91" vertex="1">
                    <mxGeometry y="30" width="190" height="30" as="geometry"/>
                </mxCell>
                <mxCell id="uYI1tOV3QVHNaPLx2gHy-93" value="PK" style="shape=partialRectangle;html=1;whiteSpace=wrap;connectable=0;overflow=hidden;fillColor=none;top=0;left=0;bottom=0;right=0;pointerEvents=1;align=left;" parent="uYI1tOV3QVHNaPLx2gHy-92" vertex="1">
                    <mxGeometry width="63" height="30" as="geometry">
                        <mxRectangle width="63" height="30" as="alternateBounds"/>
                    </mxGeometry>
                </mxCell>
                <mxCell id="uYI1tOV3QVHNaPLx2gHy-94" value="id INT NOT NULL" style="shape=partialRectangle;html=1;whiteSpace=wrap;connectable=0;overflow=hidden;fillColor=none;top=0;left=0;bottom=0;right=0;pointerEvents=1;align=left;" parent="uYI1tOV3QVHNaPLx2gHy-92" vertex="1">
                    <mxGeometry x="63" width="127" height="30" as="geometry">
                        <mxRectangle width="127" height="30" as="alternateBounds"/>
                    </mxGeometry>
                </mxCell>
                <mxCell id="uYI1tOV3QVHNaPLx2gHy-95" value="" style="shape=tableRow;horizontal=0;startSize=0;swimlaneHead=0;swimlaneBody=0;top=0;left=0;bottom=0;right=0;collapsible=0;dropTarget=0;fillColor=none;points=[[0,0.5],[1,0.5]];portConstraint=eastwest;align=left;" parent="uYI1tOV3QVHNaPLx2gHy-91" vertex="1">
                    <mxGeometry y="60" width="190" height="30" as="geometry"/>
                </mxCell>
                <mxCell id="uYI1tOV3QVHNaPLx2gHy-96" value="" style="shape=partialRectangle;html=1;whiteSpace=wrap;connectable=0;overflow=hidden;fillColor=none;top=0;left=0;bottom=0;right=0;pointerEvents=1;align=left;" parent="uYI1tOV3QVHNaPLx2gHy-95" vertex="1">
                    <mxGeometry width="63" height="30" as="geometry">
                        <mxRectangle width="63" height="30" as="alternateBounds"/>
                    </mxGeometry>
                </mxCell>
                <mxCell id="uYI1tOV3QVHNaPLx2gHy-97" value="full_name VARCHAR(50) NOT NULL" style="shape=partialRectangle;html=1;whiteSpace=wrap;connectable=0;overflow=hidden;fillColor=none;top=0;left=0;bottom=0;right=0;pointerEvents=1;align=left;" parent="uYI1tOV3QVHNaPLx2gHy-95" vertex="1">
                    <mxGeometry x="63" width="127" height="30" as="geometry">
                        <mxRectangle width="127" height="30" as="alternateBounds"/>
                    </mxGeometry>
                </mxCell>
                <mxCell id="uYI1tOV3QVHNaPLx2gHy-98" value="" style="shape=tableRow;horizontal=0;startSize=0;swimlaneHead=0;swimlaneBody=0;top=0;left=0;bottom=0;right=0;collapsible=0;dropTarget=0;fillColor=none;points=[[0,0.5],[1,0.5]];portConstraint=eastwest;align=left;" parent="uYI1tOV3QVHNaPLx2gHy-91" vertex="1">
                    <mxGeometry y="90" width="190" height="30" as="geometry"/>
                </mxCell>
                <mxCell id="uYI1tOV3QVHNaPLx2gHy-99" value="FK" style="shape=partialRectangle;html=1;whiteSpace=wrap;connectable=0;overflow=hidden;fillColor=none;top=0;left=0;bottom=0;right=0;pointerEvents=1;align=left;" parent="uYI1tOV3QVHNaPLx2gHy-98" vertex="1">
                    <mxGeometry width="63" height="30" as="geometry">
                        <mxRectangle width="63" height="30" as="alternateBounds"/>
                    </mxGeometry>
                </mxCell>
                <mxCell id="uYI1tOV3QVHNaPLx2gHy-100" value="species_id INT&amp;nbsp;" style="shape=partialRectangle;html=1;whiteSpace=wrap;connectable=0;overflow=hidden;fillColor=none;top=0;left=0;bottom=0;right=0;pointerEvents=1;align=left;" parent="uYI1tOV3QVHNaPLx2gHy-98" vertex="1">
                    <mxGeometry x="63" width="127" height="30" as="geometry">
                        <mxRectangle width="127" height="30" as="alternateBounds"/>
                    </mxGeometry>
                </mxCell>
                <mxCell id="uYI1tOV3QVHNaPLx2gHy-102" style="shape=tableRow;horizontal=0;startSize=0;swimlaneHead=0;swimlaneBody=0;top=0;left=0;bottom=0;right=0;collapsible=0;dropTarget=0;fillColor=none;points=[[0,0.5],[1,0.5]];portConstraint=eastwest;align=left;" parent="uYI1tOV3QVHNaPLx2gHy-91" vertex="1">
                    <mxGeometry y="120" width="190" height="30" as="geometry"/>
                </mxCell>
                <mxCell id="uYI1tOV3QVHNaPLx2gHy-103" value="FK" style="shape=partialRectangle;html=1;whiteSpace=wrap;connectable=0;overflow=hidden;fillColor=none;top=0;left=0;bottom=0;right=0;pointerEvents=1;align=left;" parent="uYI1tOV3QVHNaPLx2gHy-102" vertex="1">
                    <mxGeometry width="63" height="30" as="geometry">
                        <mxRectangle width="63" height="30" as="alternateBounds"/>
                    </mxGeometry>
                </mxCell>
                <mxCell id="uYI1tOV3QVHNaPLx2gHy-104" value="&lt;span&gt;vets_id INT NOT NULL&lt;/span&gt;" style="shape=partialRectangle;html=1;whiteSpace=wrap;connectable=0;overflow=hidden;fillColor=none;top=0;left=0;bottom=0;right=0;pointerEvents=1;align=left;" parent="uYI1tOV3QVHNaPLx2gHy-102" vertex="1">
                    <mxGeometry x="63" width="127" height="30" as="geometry">
                        <mxRectangle width="127" height="30" as="alternateBounds"/>
                    </mxGeometry>
                </mxCell>
                <mxCell id="uYI1tOV3QVHNaPLx2gHy-105" value="visits" style="shape=table;startSize=30;container=1;collapsible=0;childLayout=tableLayout;align=center;rounded=1;fillColor=#e1d5e7;strokeColor=#9673a6;" parent="1" vertex="1">
                    <mxGeometry x="790" y="140" width="190" height="170" as="geometry"/>
                </mxCell>
                <mxCell id="uYI1tOV3QVHNaPLx2gHy-106" value="" style="shape=tableRow;horizontal=0;startSize=0;swimlaneHead=0;swimlaneBody=0;top=0;left=0;bottom=0;right=0;collapsible=0;dropTarget=0;fillColor=none;points=[[0,0.5],[1,0.5]];portConstraint=eastwest;align=left;" parent="uYI1tOV3QVHNaPLx2gHy-105" vertex="1">
                    <mxGeometry y="30" width="190" height="30" as="geometry"/>
                </mxCell>
                <mxCell id="uYI1tOV3QVHNaPLx2gHy-107" value="PK" style="shape=partialRectangle;html=1;whiteSpace=wrap;connectable=0;overflow=hidden;fillColor=none;top=0;left=0;bottom=0;right=0;pointerEvents=1;align=left;" parent="uYI1tOV3QVHNaPLx2gHy-106" vertex="1">
                    <mxGeometry width="63" height="30" as="geometry">
                        <mxRectangle width="63" height="30" as="alternateBounds"/>
                    </mxGeometry>
                </mxCell>
                <mxCell id="uYI1tOV3QVHNaPLx2gHy-108" value="id INT NOT NULL" style="shape=partialRectangle;html=1;whiteSpace=wrap;connectable=0;overflow=hidden;fillColor=none;top=0;left=0;bottom=0;right=0;pointerEvents=1;align=left;" parent="uYI1tOV3QVHNaPLx2gHy-106" vertex="1">
                    <mxGeometry x="63" width="127" height="30" as="geometry">
                        <mxRectangle width="127" height="30" as="alternateBounds"/>
                    </mxGeometry>
                </mxCell>
                <mxCell id="uYI1tOV3QVHNaPLx2gHy-109" value="" style="shape=tableRow;horizontal=0;startSize=0;swimlaneHead=0;swimlaneBody=0;top=0;left=0;bottom=0;right=0;collapsible=0;dropTarget=0;fillColor=none;points=[[0,0.5],[1,0.5]];portConstraint=eastwest;align=left;" parent="uYI1tOV3QVHNaPLx2gHy-105" vertex="1">
                    <mxGeometry y="60" width="190" height="20" as="geometry"/>
                </mxCell>
                <mxCell id="uYI1tOV3QVHNaPLx2gHy-110" value="" style="shape=partialRectangle;html=1;whiteSpace=wrap;connectable=0;overflow=hidden;fillColor=none;top=0;left=0;bottom=0;right=0;pointerEvents=1;align=left;" parent="uYI1tOV3QVHNaPLx2gHy-109" vertex="1">
                    <mxGeometry width="63" height="20" as="geometry">
                        <mxRectangle width="63" height="20" as="alternateBounds"/>
                    </mxGeometry>
                </mxCell>
                <mxCell id="uYI1tOV3QVHNaPLx2gHy-111" value="animals_name VARCHAR(50) NOT NULL" style="shape=partialRectangle;html=1;whiteSpace=wrap;connectable=0;overflow=hidden;fillColor=none;top=0;left=0;bottom=0;right=0;pointerEvents=1;align=left;" parent="uYI1tOV3QVHNaPLx2gHy-109" vertex="1">
                    <mxGeometry x="63" width="127" height="20" as="geometry">
                        <mxRectangle width="127" height="20" as="alternateBounds"/>
                    </mxGeometry>
                </mxCell>
                <mxCell id="uYI1tOV3QVHNaPLx2gHy-112" value="" style="shape=tableRow;horizontal=0;startSize=0;swimlaneHead=0;swimlaneBody=0;top=0;left=0;bottom=0;right=0;collapsible=0;dropTarget=0;fillColor=none;points=[[0,0.5],[1,0.5]];portConstraint=eastwest;align=left;" parent="uYI1tOV3QVHNaPLx2gHy-105" vertex="1">
                    <mxGeometry y="80" width="190" height="30" as="geometry"/>
                </mxCell>
                <mxCell id="uYI1tOV3QVHNaPLx2gHy-113" value="" style="shape=partialRectangle;html=1;whiteSpace=wrap;connectable=0;overflow=hidden;fillColor=none;top=0;left=0;bottom=0;right=0;pointerEvents=1;align=left;" parent="uYI1tOV3QVHNaPLx2gHy-112" vertex="1">
                    <mxGeometry width="63" height="30" as="geometry">
                        <mxRectangle width="63" height="30" as="alternateBounds"/>
                    </mxGeometry>
                </mxCell>
                <mxCell id="uYI1tOV3QVHNaPLx2gHy-114" value="date_of_visit date NOT NULL" style="shape=partialRectangle;html=1;whiteSpace=wrap;connectable=0;overflow=hidden;fillColor=none;top=0;left=0;bottom=0;right=0;pointerEvents=1;align=left;" parent="uYI1tOV3QVHNaPLx2gHy-112" vertex="1">
                    <mxGeometry x="63" width="127" height="30" as="geometry">
                        <mxRectangle width="127" height="30" as="alternateBounds"/>
                    </mxGeometry>
                </mxCell>
                <mxCell id="uYI1tOV3QVHNaPLx2gHy-115" style="shape=tableRow;horizontal=0;startSize=0;swimlaneHead=0;swimlaneBody=0;top=0;left=0;bottom=0;right=0;collapsible=0;dropTarget=0;fillColor=none;points=[[0,0.5],[1,0.5]];portConstraint=eastwest;align=left;" parent="uYI1tOV3QVHNaPLx2gHy-105" vertex="1">
                    <mxGeometry y="110" width="190" height="30" as="geometry"/>
                </mxCell>
                <mxCell id="uYI1tOV3QVHNaPLx2gHy-116" value="FK" style="shape=partialRectangle;html=1;whiteSpace=wrap;connectable=0;overflow=hidden;fillColor=none;top=0;left=0;bottom=0;right=0;pointerEvents=1;align=left;" parent="uYI1tOV3QVHNaPLx2gHy-115" vertex="1">
                    <mxGeometry width="63" height="30" as="geometry">
                        <mxRectangle width="63" height="30" as="alternateBounds"/>
                    </mxGeometry>
                </mxCell>
                <mxCell id="uYI1tOV3QVHNaPLx2gHy-117" value="animals_id INT NOT NULL" style="shape=partialRectangle;html=1;whiteSpace=wrap;connectable=0;overflow=hidden;fillColor=none;top=0;left=0;bottom=0;right=0;pointerEvents=1;align=left;" parent="uYI1tOV3QVHNaPLx2gHy-115" vertex="1">
                    <mxGeometry x="63" width="127" height="30" as="geometry">
                        <mxRectangle width="127" height="30" as="alternateBounds"/>
                    </mxGeometry>
                </mxCell>
                <mxCell id="uYI1tOV3QVHNaPLx2gHy-118" style="shape=tableRow;horizontal=0;startSize=0;swimlaneHead=0;swimlaneBody=0;top=0;left=0;bottom=0;right=0;collapsible=0;dropTarget=0;fillColor=none;points=[[0,0.5],[1,0.5]];portConstraint=eastwest;align=left;" parent="uYI1tOV3QVHNaPLx2gHy-105" vertex="1">
                    <mxGeometry y="140" width="190" height="30" as="geometry"/>
                </mxCell>
                <mxCell id="uYI1tOV3QVHNaPLx2gHy-119" value="FK" style="shape=partialRectangle;html=1;whiteSpace=wrap;connectable=0;overflow=hidden;fillColor=none;top=0;left=0;bottom=0;right=0;pointerEvents=1;align=left;" parent="uYI1tOV3QVHNaPLx2gHy-118" vertex="1">
                    <mxGeometry width="63" height="30" as="geometry">
                        <mxRectangle width="63" height="30" as="alternateBounds"/>
                    </mxGeometry>
                </mxCell>
                <mxCell id="uYI1tOV3QVHNaPLx2gHy-120" value="vets_id INT NOT NULL" style="shape=partialRectangle;html=1;whiteSpace=wrap;connectable=0;overflow=hidden;fillColor=none;top=0;left=0;bottom=0;right=0;pointerEvents=1;align=left;" parent="uYI1tOV3QVHNaPLx2gHy-118" vertex="1">
                    <mxGeometry x="63" width="127" height="30" as="geometry">
                        <mxRectangle width="127" height="30" as="alternateBounds"/>
                    </mxGeometry>
                </mxCell>
                <mxCell id="uYI1tOV3QVHNaPLx2gHy-122" value="species" style="shape=table;startSize=30;container=1;collapsible=0;childLayout=tableLayout;align=center;rounded=1;fillColor=#f8cecc;strokeColor=#b85450;" parent="1" vertex="1">
                    <mxGeometry x="310" y="160" width="190" height="90" as="geometry"/>
                </mxCell>
                <mxCell id="uYI1tOV3QVHNaPLx2gHy-123" value="" style="shape=tableRow;horizontal=0;startSize=0;swimlaneHead=0;swimlaneBody=0;top=0;left=0;bottom=0;right=0;collapsible=0;dropTarget=0;fillColor=none;points=[[0,0.5],[1,0.5]];portConstraint=eastwest;align=left;" parent="uYI1tOV3QVHNaPLx2gHy-122" vertex="1">
                    <mxGeometry y="30" width="190" height="30" as="geometry"/>
                </mxCell>
                <mxCell id="uYI1tOV3QVHNaPLx2gHy-124" value="PK" style="shape=partialRectangle;html=1;whiteSpace=wrap;connectable=0;overflow=hidden;fillColor=none;top=0;left=0;bottom=0;right=0;pointerEvents=1;align=left;" parent="uYI1tOV3QVHNaPLx2gHy-123" vertex="1">
                    <mxGeometry width="63" height="30" as="geometry">
                        <mxRectangle width="63" height="30" as="alternateBounds"/>
                    </mxGeometry>
                </mxCell>
                <mxCell id="uYI1tOV3QVHNaPLx2gHy-125" value="id INT NOT NULL" style="shape=partialRectangle;html=1;whiteSpace=wrap;connectable=0;overflow=hidden;fillColor=none;top=0;left=0;bottom=0;right=0;pointerEvents=1;align=left;" parent="uYI1tOV3QVHNaPLx2gHy-123" vertex="1">
                    <mxGeometry x="63" width="127" height="30" as="geometry">
                        <mxRectangle width="127" height="30" as="alternateBounds"/>
                    </mxGeometry>
                </mxCell>
                <mxCell id="uYI1tOV3QVHNaPLx2gHy-126" value="" style="shape=tableRow;horizontal=0;startSize=0;swimlaneHead=0;swimlaneBody=0;top=0;left=0;bottom=0;right=0;collapsible=0;dropTarget=0;fillColor=none;points=[[0,0.5],[1,0.5]];portConstraint=eastwest;align=left;" parent="uYI1tOV3QVHNaPLx2gHy-122" vertex="1">
                    <mxGeometry y="60" width="190" height="30" as="geometry"/>
                </mxCell>
                <mxCell id="uYI1tOV3QVHNaPLx2gHy-127" value="" style="shape=partialRectangle;html=1;whiteSpace=wrap;connectable=0;overflow=hidden;fillColor=none;top=0;left=0;bottom=0;right=0;pointerEvents=1;align=left;" parent="uYI1tOV3QVHNaPLx2gHy-126" vertex="1">
                    <mxGeometry width="63" height="30" as="geometry">
                        <mxRectangle width="63" height="30" as="alternateBounds"/>
                    </mxGeometry>
                </mxCell>
                <mxCell id="uYI1tOV3QVHNaPLx2gHy-128" value="name VARCHAR(50) NOT NULL" style="shape=partialRectangle;html=1;whiteSpace=wrap;connectable=0;overflow=hidden;fillColor=none;top=0;left=0;bottom=0;right=0;pointerEvents=1;align=left;" parent="uYI1tOV3QVHNaPLx2gHy-126" vertex="1">
                    <mxGeometry x="63" width="127" height="30" as="geometry">
                        <mxRectangle width="127" height="30" as="alternateBounds"/>
                    </mxGeometry>
                </mxCell>
                <mxCell id="uYI1tOV3QVHNaPLx2gHy-136" style="edgeStyle=orthogonalEdgeStyle;rounded=1;orthogonalLoop=1;jettySize=auto;html=1;exitX=1.036;exitY=0.591;exitDx=0;exitDy=0;entryX=0;entryY=0.5;entryDx=0;entryDy=0;endArrow=ERmany;endFill=0;exitPerimeter=0;startArrow=baseDash;startFill=0;" parent="1" source="uYI1tOV3QVHNaPLx2gHy-37" target="uYI1tOV3QVHNaPLx2gHy-115" edge="1">
                    <mxGeometry relative="1" as="geometry"/>
                </mxCell>
                <mxCell id="uYI1tOV3QVHNaPLx2gHy-133" style="edgeStyle=orthogonalEdgeStyle;rounded=1;orthogonalLoop=1;jettySize=auto;html=1;exitX=0;exitY=0.5;exitDx=0;exitDy=0;entryX=1;entryY=0.5;entryDx=0;entryDy=0;startArrow=baseDash;startFill=0;endArrow=ERmany;endFill=0;" parent="1" source="uYI1tOV3QVHNaPLx2gHy-56" target="uYI1tOV3QVHNaPLx2gHy-85" edge="1">
                    <mxGeometry relative="1" as="geometry"/>
                </mxCell>
                <mxCell id="uYI1tOV3QVHNaPLx2gHy-132" style="edgeStyle=orthogonalEdgeStyle;orthogonalLoop=1;jettySize=auto;html=1;exitX=-0.012;exitY=0.325;exitDx=0;exitDy=0;entryX=1;entryY=0.5;entryDx=0;entryDy=0;endArrow=ERmany;endFill=0;rounded=1;exitPerimeter=0;startArrow=baseDash;startFill=0;" parent="1" source="uYI1tOV3QVHNaPLx2gHy-123" target="uYI1tOV3QVHNaPLx2gHy-82" edge="1">
                    <mxGeometry relative="1" as="geometry"/>
                </mxCell>
                <mxCell id="uYI1tOV3QVHNaPLx2gHy-134" style="edgeStyle=orthogonalEdgeStyle;rounded=1;orthogonalLoop=1;jettySize=auto;html=1;exitX=0;exitY=0.5;exitDx=0;exitDy=0;entryX=1;entryY=0.5;entryDx=0;entryDy=0;startArrow=baseDash;startFill=0;endArrow=ERmany;endFill=0;" parent="1" source="uYI1tOV3QVHNaPLx2gHy-123" target="uYI1tOV3QVHNaPLx2gHy-98" edge="1">
                    <mxGeometry relative="1" as="geometry"/>
                </mxCell>
                <mxCell id="uYI1tOV3QVHNaPLx2gHy-135" style="edgeStyle=orthogonalEdgeStyle;rounded=1;orthogonalLoop=1;jettySize=auto;html=1;exitX=-0.029;exitY=0.437;exitDx=0;exitDy=0;entryX=1;entryY=0.5;entryDx=0;entryDy=0;exitPerimeter=0;startArrow=baseDash;startFill=0;endArrow=ERmany;endFill=0;" parent="1" source="uYI1tOV3QVHNaPLx2gHy-73" target="uYI1tOV3QVHNaPLx2gHy-102" edge="1">
                    <mxGeometry relative="1" as="geometry"/>
                </mxCell>
                <mxCell id="uYI1tOV3QVHNaPLx2gHy-137" style="edgeStyle=orthogonalEdgeStyle;rounded=1;orthogonalLoop=1;jettySize=auto;html=1;exitX=-0.024;exitY=0.754;exitDx=0;exitDy=0;entryX=0;entryY=0.5;entryDx=0;entryDy=0;exitPerimeter=0;startArrow=baseDash;startFill=0;endArrow=ERmany;endFill=0;" parent="1" source="uYI1tOV3QVHNaPLx2gHy-73" target="uYI1tOV3QVHNaPLx2gHy-118" edge="1">
                    <mxGeometry relative="1" as="geometry"/>
                </mxCell>
            </root>
        </mxGraphModel>
    </diagram>
</mxfile>